<?xml version="1.0" encoding="UTF-8" standalone="no"?>
<!-- Created with Inkscape (http://www.inkscape.org/) -->

<svg
   width="100"
   height="100"
   viewBox="0 0 26.458333 26.458333"
   version="1.1"
   id="svg5"
   inkscape:export-filename="greedy.svg"
   inkscape:export-xdpi="96"
   inkscape:export-ydpi="96"
   xmlns:inkscape="http://www.inkscape.org/namespaces/inkscape"
   xmlns:sodipodi="http://sodipodi.sourceforge.net/DTD/sodipodi-0.dtd"
   xmlns="http://www.w3.org/2000/svg"
   xmlns:svg="http://www.w3.org/2000/svg">
  <sodipodi:namedview
     id="namedview7"
     pagecolor="#ffffff"
     bordercolor="#000000"
     borderopacity="0.25"
     inkscape:showpageshadow="2"
     inkscape:pageopacity="0.0"
     inkscape:pagecheckerboard="0"
     inkscape:deskcolor="#d1d1d1"
     inkscape:document-units="mm"
     showgrid="false" />
  <defs
     id="defs2">
    <inkscape:path-effect
       effect="bspline"
       id="path-effect1184"
       is_visible="true"
       lpeversion="1"
       weight="33.333333"
       steps="2"
       helper_size="0"
       apply_no_weight="true"
       apply_with_weight="true"
       only_selected="false" />
    <inkscape:path-effect
       effect="bspline"
       id="path-effect1180"
       is_visible="true"
       lpeversion="1"
       weight="33.333333"
       steps="2"
       helper_size="0"
       apply_no_weight="true"
       apply_with_weight="true"
       only_selected="false" />
    <inkscape:path-effect
       effect="bspline"
       id="path-effect1176"
       is_visible="true"
       lpeversion="1"
       weight="33.333333"
       steps="2"
       helper_size="0"
       apply_no_weight="true"
       apply_with_weight="true"
       only_selected="false" />
    <inkscape:path-effect
       effect="bspline"
       id="path-effect1172"
       is_visible="true"
       lpeversion="1"
       weight="33.333333"
       steps="2"
       helper_size="0"
       apply_no_weight="true"
       apply_with_weight="true"
       only_selected="false" />
    <inkscape:path-effect
       effect="bspline"
       id="path-effect1168"
       is_visible="true"
       lpeversion="1"
       weight="33.333333"
       steps="2"
       helper_size="0"
       apply_no_weight="true"
       apply_with_weight="true"
       only_selected="false" />
    <inkscape:path-effect
       effect="bspline"
       id="path-effect1164"
       is_visible="true"
       lpeversion="1"
       weight="33.333333"
       steps="2"
       helper_size="0"
       apply_no_weight="true"
       apply_with_weight="true"
       only_selected="false" />
    <inkscape:path-effect
       effect="bspline"
       id="path-effect1160"
       is_visible="true"
       lpeversion="1"
       weight="33.333333"
       steps="2"
       helper_size="0"
       apply_no_weight="true"
       apply_with_weight="true"
       only_selected="false" />
    <inkscape:path-effect
       effect="bspline"
       id="path-effect1156"
       is_visible="true"
       lpeversion="1"
       weight="33.333333"
       steps="2"
       helper_size="0"
       apply_no_weight="true"
       apply_with_weight="true"
       only_selected="false" />
    <inkscape:path-effect
       effect="bspline"
       id="path-effect1152"
       is_visible="true"
       lpeversion="1"
       weight="33.333333"
       steps="2"
       helper_size="0"
       apply_no_weight="true"
       apply_with_weight="true"
       only_selected="false" />
  </defs>
  <g
     inkscape:label="Layer 1"
     inkscape:groupmode="layer"
     id="layer1">
    <path
       style="fill:none;stroke:#000000;stroke-width:0.79375"
       d="m 6.8462836,15.622542 c 0.3604166,0.01867 0.7180581,0.0372 1.2457564,0.09928 0.5276984,0.06208 1.2252524,0.16741 1.6223257,0.21985 0.3970733,0.05244 0.4939993,0.05244 0.6574273,0.06903 0.163427,0.01659 0.393041,0.04935 0.646821,0.06552 0.253779,0.01617 0.53204,0.01617 0.918419,0.03446 0.386379,0.01829 0.880697,0.05467 1.405283,0.06487 0.524586,0.0102 1.079697,-0.0055 1.640582,-0.01332 0.560885,-0.0078 1.127467,-0.0078 1.607062,-0.0078 0.479595,0 0.872203,0 1.167927,-0.0079 0.295724,-0.0079 0.494789,-0.02365 0.551757,-0.166414 0.05697,-0.142762 -0.02671,-0.415936 -0.06903,-0.749636 -0.04232,-0.333699 -0.04232,-0.727411 -0.04232,-1.086003 0,-0.358592 0,-0.682064 0.01556,-0.938308 0.01556,-0.256243 0.04703,-0.444757 0.07863,-0.67426 0.03161,-0.229503 0.06326,-0.500157 0.09469,-0.698519 0.03143,-0.198362 0.06284,-0.323997 0.07878,-0.457095 0.01594,-0.133098 0.01594,-0.274437 0.02353,-0.369194 0.0076,-0.09476 0.02329,-0.141866 0.03141,-0.243415 0.0081,-0.101549 0.0081,-0.258592 0.0238,-0.710241 0.01568,-0.4516489 0.04715,-1.1977884 0.07873,-1.9464569"
       id="path1150"
       inkscape:path-effect="#path-effect1152"
       inkscape:original-d="m 6.8462836,15.622542 c 0.3602871,0.02117 0.7179284,0.0397 1.0729238,0.05558 0.7001994,0.107975 1.3977533,0.213305 2.0926616,0.315988 0.09957,0.0026 0.196496,0.0026 0.290775,0 0.23226,0.0354 0.461874,0.06816 0.688843,0.09828 0.280906,0.0026 0.559167,0.0026 0.834782,0 0.496964,0.03902 0.991282,0.0754 1.482954,0.109132 0.557756,-0.01306 1.112867,-0.02876 1.665332,-0.04711 0.569228,0.0026 1.13581,0.0026 1.699746,0 0.395254,0.0026 0.787862,0.0026 1.177824,0 0.20171,-0.01306 0.400775,-0.02876 0.597193,-0.04711 -0.08103,-0.270527 -0.164703,-0.543701 -0.251023,-0.81952 0.0026,-0.391066 0.0026,-0.784778 0,-1.181136 0.0026,-0.320826 0.0026,-0.644298 0,-0.970416 0.03412,-0.185867 0.06559,-0.374381 0.09441,-0.565539 0.0343,-0.268009 0.06595,-0.538663 0.09496,-0.811963 0.03405,-0.122988 0.06546,-0.248623 0.09423,-0.376903 0.0026,-0.138693 0.0026,-0.280032 0,-0.424017 0.01835,-0.04447 0.03405,-0.09158 0.04711,-0.141339 0.0026,-0.154397 0.0026,-0.31144 0,-0.471129 0.03411,-0.7434931 0.06559,-1.4896321 0.09441,-2.2384169" />
    <path
       style="fill:none;stroke:#000000;stroke-width:0.79375"
       d="M 7.2645952,15.627511 C 7.2454743,15.252767 7.226212,14.87525 7.2066515,14.58425 c -0.01956,-0.290999 -0.039559,-0.495585 -0.049699,-0.801321 -0.01014,-0.305736 -0.01014,-0.712392 -0.017945,-1.145966 -0.00781,-0.433573 -0.02351,-0.894151 -0.015908,-1.20331 0.0076,-0.309159 0.039011,-0.466203 0.054919,-0.607236 0.015908,-0.141034 0.015908,-0.266668 0.023707,-0.517994 0.0078,-0.251327 0.023504,-0.6282307 0.031409,-0.9187031 0.0079,-0.2904724 0.0079,-0.4946286 -0.023054,-0.7063872 C 7.1791206,8.4715741 7.1163034,8.2517134 7.0844455,8.0560802 7.0525876,7.8604469 7.0525876,7.6895398 7.2538932,7.5437424 7.4551988,7.397945 7.8560881,7.280408 8.3362676,7.2218919 c 0.4801795,-0.058516 1.0387255,-0.058516 1.4710995,-0.034792 0.4323739,0.023724 0.7382399,0.070714 1.1637579,0.1033517 0.425518,0.032637 0.970936,0.051286 1.299771,0.068971 0.328835,0.017684 0.440851,0.034063 0.642821,0.042036 0.20197,0.00797 0.494218,0.00797 0.771037,0.00797 0.276819,0 0.53821,0 0.895734,-0.032241 0.357525,-0.032241 0.8116,-0.096408 1.220673,-0.1283336 0.409074,-0.031926 0.772727,-0.031926 1.072121,-0.031926 0.299394,0 0.534529,0 0.691632,0.016343 0.157104,0.016343 0.235623,0.047751 0.361001,0.070799 0.125377,0.023048 0.29794,0.038753 0.391874,0.055559 0.09393,0.016806 0.109455,0.032326 0.201534,0.062759 0.09208,0.030433 0.260227,0.077546 0.425233,0.1237787"
       id="path1154"
       inkscape:path-effect="#path-effect1156"
       inkscape:original-d="m 7.2645952,15.627511 c -0.016616,-0.374872 -0.035879,-0.752389 -0.057787,-1.132551 -0.017354,-0.20194 -0.037351,-0.406526 -0.059995,-0.613757 0.00265,-0.40401 0.00265,-0.810666 0,-1.219968 -0.01306,-0.457932 -0.028763,-0.91851 -0.047113,-1.381734 0.034054,-0.154397 0.065463,-0.31144 0.094226,-0.471129 0.00265,-0.122989 0.00265,-0.248623 0,-0.376904 0.018349,-0.374257 0.034054,-0.7511611 0.047113,-1.1307104 0.00265,-0.2015101 0.00265,-0.4056663 0,-0.6124684 -0.060171,-0.2172144 -0.1229886,-0.437075 -0.1884516,-0.6595811 0.00265,-0.1682612 0.00265,-0.3391683 0,-0.5127212 0.403535,-0.1148912 0.8044243,-0.2324281 1.2026676,-0.352611 0.5611919,0.00265 1.1197379,0.00265 1.6756381,0 0.3085117,0.049636 0.6143777,0.096626 0.9175987,0.1409708 0.548064,0.021295 1.093482,0.039944 1.636254,0.055947 0.114662,0.019025 0.226678,0.035404 0.336048,0.049137 0.294893,0.00265 0.587141,0.00265 0.876742,0 0.264037,0.00265 0.525428,0.00265 0.784173,0 0.456722,-0.061521 0.910797,-0.1256879 1.362227,-0.1925006 0.366299,0.00265 0.729952,0.00265 1.090959,0 0.237781,0.00265 0.472916,0.00265 0.705406,0 0.08117,0.034054 0.159689,0.065463 0.235565,0.094226 0.175209,0.01835 0.347772,0.034054 0.51769,0.047113 0.01817,0.018166 0.03369,0.033686 0.04656,0.046561 0.170792,0.049759 0.338939,0.096872 0.50444,0.1413388" />
    <path
       style="fill:none;stroke:#000000;stroke-width:0.79375"
       d="M 7.3656303,7.6628468 C 7.7911529,7.2826133 8.216519,6.9025197 8.5020936,6.6395731 8.7876682,6.3766265 8.933608,6.2306868 9.1429955,6.0617728 9.3523831,5.8928588 9.6246935,5.7013396 10.033147,5.4185613 10.441601,5.1357829 10.98616,4.7617628 11.298105,4.5589674 11.610049,4.356172 11.688569,4.3247641 11.776128,4.2766785 c 0.08756,-0.048086 0.184913,-0.1129882 0.324374,-0.1792476 0.13946,-0.066259 0.320182,-0.1337387 0.480966,-0.2067173 0.160784,-0.072979 0.302184,-0.1515 0.436068,-0.2143701 0.133885,-0.06287 0.259703,-0.1100444 0.37728,-0.1650127 0.117577,-0.054968 0.227507,-0.1177853 0.31206,-0.1726408 0.08455,-0.054855 0.144244,-0.1019705 0.203589,-0.1488124"
       id="path1158"
       inkscape:path-effect="#path-effect1160"
       inkscape:original-d="M 7.3656303,7.6628468 C 7.7936422,7.2853991 8.2190084,6.9053056 8.6417284,6.5225662 8.7903141,6.3792724 8.9362538,6.2333327 9.0795477,6.0847472 9.3545037,5.8958739 9.6268142,5.7043549 9.8964786,5.5101899 10.443684,5.1388155 10.988243,4.7647952 11.530157,4.3881291 c 0.08117,-0.028763 0.159689,-0.060172 0.235564,-0.094226 0.100001,-0.062257 0.197355,-0.1271601 0.292064,-0.1947087 0.183368,-0.064834 0.36409,-0.1323134 0.542167,-0.2024385 0.144046,-0.075876 0.285446,-0.1543974 0.424201,-0.2355647 0.128464,-0.044528 0.254282,-0.091703 0.377455,-0.1415229 0.112576,-0.060172 0.222506,-0.1229887 0.329791,-0.1884519 0.06233,-0.044467 0.122023,-0.09158 0.179066,-0.1413388" />
    <path
       style="fill:none;stroke:#000000;stroke-width:0.79375"
       d="m 18.830455,7.8010569 c 0.125617,-0.2319889 0.251742,-0.4649157 0.387169,-0.6539896 0.135428,-0.1890738 0.27965,-0.3333575 0.375085,-0.4443714 0.09544,-0.1110139 0.142547,-0.189534 0.197956,-0.2528987 0.05541,-0.063365 0.118228,-0.1104792 0.180704,-0.1729757 0.06248,-0.062496 0.125295,-0.1410197 0.227685,-0.2355494 0.10239,-0.09453 0.243729,-0.2044595 0.369098,-0.3220058 0.125369,-0.1175463 0.2353,-0.2431811 0.384633,-0.3925207 0.149333,-0.1493396 0.337784,-0.3220865 0.549733,-0.5261879 0.211948,-0.2041013 0.447513,-0.439666 0.683078,-0.6752305"
       id="path1162"
       inkscape:path-effect="#path-effect1164"
       inkscape:original-d="m 18.830455,7.8010569 c 0.128771,-0.2302811 0.254896,-0.4632079 0.378375,-0.6987807 0.146868,-0.1416375 0.291091,-0.2859209 0.432667,-0.4328501 0.04976,-0.075876 0.09687,-0.1543974 0.141339,-0.2355646 0.06546,-0.044467 0.12828,-0.09158 0.188451,-0.1413389 0.06546,-0.075876 0.128281,-0.1543973 0.188452,-0.2355649 0.143985,-0.1072843 0.285323,-0.2172144 0.424016,-0.3297904 0.112576,-0.1229889 0.222507,-0.2486234 0.329791,-0.3769037 0.191098,-0.1701017 0.379549,-0.3428489 0.565355,-0.5182423 0.238211,-0.232919 0.473776,-0.4684837 0.706695,-0.7066941" />
    <path
       style="fill:none;stroke:#000000;stroke-width:0.79375"
       d="m 13.901631,3.3687596 c 1.886118,0.042696 3.769532,0.085331 5.178351,0.1066174 1.40882,0.021287 2.343103,0.021287 3.274742,0.021287"
       id="path1166"
       inkscape:path-effect="#path-effect1168"
       inkscape:original-d="m 13.901631,3.3687596 c 1.886059,0.045281 3.769473,0.087915 5.650241,0.1279041 0.93693,0.00265 1.871213,0.00265 2.802852,0" />
    <path
       style="fill:none;stroke:#000000;stroke-width:0.79375"
       d="m 22.443429,4.5506319 c -0.008,1.276887 -0.01596,2.551145 -0.01994,3.4284785 -0.004,0.8773334 -0.004,1.357726 0.0053,1.6704519 0.0093,0.3127259 0.02742,0.4574997 0.03632,0.7527027 0.0089,0.295203 0.0089,0.74112 0.0089,1.417141 0,0.676022 0,1.582149 0,2.48563"
       id="path1170"
       inkscape:path-effect="#path-effect1172"
       inkscape:original-d="m 22.443429,4.5506319 c -0.0053,1.2769038 -0.0133,2.5511617 -0.02392,3.8227735 0.0026,0.4830384 0.0026,0.963431 0,1.4411778 0.0208,0.14742 0.03896,0.2921938 0.05448,0.4343228 0.0026,0.448562 0.0026,0.894479 0,1.337749 0.0026,0.908773 0.0026,1.8149 0,2.718381" />
    <path
       style="fill:none;stroke:#000000;stroke-width:0.79375"
       d="m 18.422633,16.098088 c 0.452154,-0.419572 0.904205,-0.839049 1.177597,-1.080352 0.273392,-0.241302 0.367619,-0.304121 0.437984,-0.358883 0.07036,-0.05476 0.117475,-0.101873 0.212315,-0.157111 0.09484,-0.05524 0.23618,-0.118056 0.321938,-0.164894 0.08576,-0.04684 0.117168,-0.07825 0.228035,-0.117745 0.110868,-0.0395 0.299319,-0.08661 0.479728,-0.141613 0.180409,-0.055 0.353157,-0.11782 0.486972,-0.156988 0.133815,-0.03917 0.228042,-0.05487 0.289602,-0.07813 0.06156,-0.02325 0.0926,-0.05442 0.148065,-0.08598 0.05547,-0.03156 0.133989,-0.06297 0.2399,-0.117897 0.105911,-0.05493 0.239764,-0.13345 0.372805,-0.211494"
       id="path1174"
       inkscape:path-effect="#path-effect1176"
       inkscape:original-d="m 18.422633,16.098088 c 0.454697,-0.416831 0.906749,-0.836308 1.356154,-1.258431 0.09687,-0.06017 0.191097,-0.122989 0.282677,-0.188452 0.04976,-0.04447 0.09687,-0.09158 0.141339,-0.141339 0.143985,-0.06017 0.285324,-0.122988 0.424017,-0.188451 0.03405,-0.02876 0.06546,-0.06017 0.09423,-0.09423 0.191097,-0.04447 0.379549,-0.09158 0.565355,-0.141339 0.175393,-0.06017 0.348141,-0.122989 0.518242,-0.188452 0.09687,-0.01306 0.191098,-0.02876 0.282678,-0.04711 0.03369,-0.02852 0.06473,-0.05968 0.09312,-0.09349 0.08117,-0.02876 0.159689,-0.06017 0.235564,-0.09422 0.136501,-0.07588 0.270356,-0.154398 0.401565,-0.235565" />
    <path
       style="fill:none;stroke:#000000;stroke-width:0.79375"
       d="m 8.0027591,15.327718 c 0.2218483,-0.25256 0.4438555,-0.505301 0.6952444,-0.76406 0.2513888,-0.258759 0.5319195,-0.523279 0.7431194,-0.702818 0.2111999,-0.179538 0.3525387,-0.273764 0.4858136,-0.37572 0.1332745,-0.101957 0.2589095,-0.211887 0.3613155,-0.290561 0.102406,-0.07867 0.180986,-0.125785 0.283168,-0.204401 0.102182,-0.07862 0.228553,-0.189037 0.347036,-0.275818 0.118483,-0.08678 0.228413,-0.149597 0.416526,-0.298622 0.188112,-0.149024 0.455084,-0.384588 0.675001,-0.573081 0.219917,-0.188492 0.392665,-0.329832 0.495131,-0.4085 0.102466,-0.07867 0.133866,-0.09437 0.156631,-0.11713 0.02276,-0.02276 0.03847,-0.05418 0.06273,-0.07844 0.02426,-0.02426 0.05549,-0.03978 0.353776,0.03499 0.298285,0.07477 0.861556,0.238375 1.995615,0.479317 1.134059,0.240943 2.83902,0.559569 3.816124,0.737532 0.977105,0.177963 1.226411,0.215383 1.445303,0.249826 0.218892,0.03444 0.407343,0.06585 0.571784,0.08131 0.164441,0.01545 0.305227,0.01545 0.403797,0.03021 0.09857,0.01475 0.154393,0.04266 0.180718,0.06491 0.02632,0.02225 0.02632,0.03777 0.05147,0.05258 0.02514,0.01482 0.07225,0.03052 0.158446,0.09403 0.08619,0.06352 0.211827,0.173448 0.334651,0.280919"
       id="path1178"
       inkscape:path-effect="#path-effect1180"
       inkscape:original-d="M 8.0027591,15.327718 C 8.2274126,15.077622 8.44942,14.824881 8.6687815,14.569494 8.9519582,14.30762 9.2324887,14.0431 9.5103734,13.775935 c 0.1439847,-0.09158 0.2853235,-0.185806 0.4240165,-0.282678 0.1282801,-0.107284 0.2539151,-0.217214 0.3769031,-0.32979 0.08123,-0.04447 0.159812,-0.09158 0.235749,-0.141339 0.129017,-0.107775 0.255387,-0.218196 0.379112,-0.331263 0.112576,-0.06017 0.222506,-0.122989 0.329791,-0.188451 0.269619,-0.23292 0.536592,-0.468484 0.80092,-0.706695 0.175393,-0.138693 0.348141,-0.280032 0.518242,-0.424016 0.03406,-0.01306 0.06546,-0.02876 0.09423,-0.04711 0.01835,-0.02876 0.03406,-0.06017 0.04711,-0.09423 0.03387,-0.01287 0.0651,-0.02839 0.09367,-0.04656 0.565916,0.166253 1.129187,0.32986 1.689812,0.490821 1.707607,0.321272 3.412568,0.639898 5.114883,0.955878 0.251952,0.04007 0.501258,0.07749 0.747918,0.112261 0.191097,0.03406 0.379549,0.06546 0.565355,0.09423 0.143433,0.0026 0.284219,0.0026 0.42236,0 0.05847,0.03056 0.114294,0.05847 0.167472,0.08374 0.0026,0.01817 0.0026,0.03369 0,0.04656 0.04976,0.01835 0.09687,0.03405 0.141339,0.04711 0.12828,0.112576 0.253915,0.222506 0.376903,0.32979" />
    <path
       style="fill:none;stroke:#000000;stroke-width:0.79375"
       d="m 12.94649,11.191349 c 0.09457,-0.506042 0.189536,-1.014163 0.237211,-1.3633003 0.04767,-0.3491374 0.04767,-0.5398588 0.05535,-0.6825828 0.0077,-0.142724 0.02338,-0.2369494 0.03141,-0.4220533 0.008,-0.1851038 0.008,-0.4615857 0.02347,-0.632028 0.01544,-0.1704422 0.04685,-0.233259 0.110175,-0.5330783 0.06333,-0.2998192 0.158411,-0.8376921 0.276539,-1.3032695 0.118129,-0.4655773 0.259468,-0.8582465 0.330407,-1.0932688 0.07094,-0.2350223 0.07094,-0.3135436 0.0856,-0.3803674 0.01466,-0.066824 0.04447,-0.1201927 0.05963,-0.2638441 0.01516,-0.1436514 0.01516,-0.3793388 0.01516,-0.6176723"
       id="path1182"
       inkscape:path-effect="#path-effect1184"
       inkscape:original-d="m 12.94649,11.191349 c 0.09761,-0.505475 0.192569,-1.013596 0.284886,-1.5243618 0.0026,-0.1880759 0.0026,-0.3787973 0,-0.5721646 0.01835,-0.09158 0.03405,-0.185806 0.04711,-0.2826777 0.0026,-0.2738361 0.0026,-0.550318 0,-0.8294454 0.03405,-0.060172 0.06546,-0.1229887 0.09423,-0.1884519 0.09773,-0.5352269 0.192815,-1.0730997 0.285254,-1.6136183 0.143984,-0.3900234 0.285323,-0.7826925 0.424016,-1.1780076 0.0026,-0.075876 0.0026,-0.1543973 0,-0.2355648 0.03246,-0.050724 0.06227,-0.1040943 0.08944,-0.1601103 0.0026,-0.2330415 0.0026,-0.4687289 0,-0.7070624" />
  </g>
</svg>
