<?xml version="1.0" encoding="UTF-8" standalone="no"?>
<!-- Created with Inkscape (http://www.inkscape.org/) -->

<svg
   width="210"
   height="210"
   viewBox="0 0 210 210"
   version="1.1"
   id="svg2655"
   inkscape:export-filename="cube_depth_big.svg"
   inkscape:export-xdpi="96"
   inkscape:export-ydpi="96"
   xmlns:inkscape="http://www.inkscape.org/namespaces/inkscape"
   xmlns:sodipodi="http://sodipodi.sourceforge.net/DTD/sodipodi-0.dtd"
   xmlns="http://www.w3.org/2000/svg"
   xmlns:svg="http://www.w3.org/2000/svg">
  <sodipodi:namedview
     id="namedview2657"
     pagecolor="#ffffff"
     bordercolor="#000000"
     borderopacity="0.25"
     inkscape:showpageshadow="2"
     inkscape:pageopacity="0.0"
     inkscape:pagecheckerboard="0"
     inkscape:deskcolor="#d1d1d1"
     inkscape:document-units="mm"
     showgrid="false" />
  <defs
     id="defs2652">
    <inkscape:path-effect
       effect="bspline"
       id="path-effect3295"
       is_visible="true"
       lpeversion="1"
       weight="33.333333"
       steps="2"
       helper_size="0"
       apply_no_weight="true"
       apply_with_weight="true"
       only_selected="false" />
    <inkscape:path-effect
       effect="bspline"
       id="path-effect3291"
       is_visible="true"
       lpeversion="1"
       weight="33.333333"
       steps="2"
       helper_size="0"
       apply_no_weight="true"
       apply_with_weight="true"
       only_selected="false" />
    <inkscape:path-effect
       effect="bspline"
       id="path-effect3287"
       is_visible="true"
       lpeversion="1"
       weight="33.333333"
       steps="2"
       helper_size="0"
       apply_no_weight="true"
       apply_with_weight="true"
       only_selected="false" />
    <inkscape:path-effect
       effect="bspline"
       id="path-effect3279"
       is_visible="true"
       lpeversion="1"
       weight="33.333333"
       steps="2"
       helper_size="0"
       apply_no_weight="true"
       apply_with_weight="true"
       only_selected="false" />
    <inkscape:path-effect
       effect="bspline"
       id="path-effect3201"
       is_visible="true"
       lpeversion="1"
       weight="33.333333"
       steps="2"
       helper_size="0"
       apply_no_weight="true"
       apply_with_weight="true"
       only_selected="false" />
    <inkscape:path-effect
       effect="bspline"
       id="path-effect3197"
       is_visible="true"
       lpeversion="1"
       weight="33.333333"
       steps="2"
       helper_size="0"
       apply_no_weight="true"
       apply_with_weight="true"
       only_selected="false" />
    <inkscape:path-effect
       effect="bspline"
       id="path-effect3189"
       is_visible="true"
       lpeversion="1"
       weight="33.333333"
       steps="2"
       helper_size="0"
       apply_no_weight="true"
       apply_with_weight="true"
       only_selected="false" />
    <inkscape:path-effect
       effect="bspline"
       id="path-effect3185"
       is_visible="true"
       lpeversion="1"
       weight="33.333333"
       steps="2"
       helper_size="0"
       apply_no_weight="true"
       apply_with_weight="true"
       only_selected="false" />
    <inkscape:path-effect
       effect="bspline"
       id="path-effect3181"
       is_visible="true"
       lpeversion="1"
       weight="33.333333"
       steps="2"
       helper_size="0"
       apply_no_weight="true"
       apply_with_weight="true"
       only_selected="false" />
    <inkscape:path-effect
       effect="bspline"
       id="path-effect3173"
       is_visible="true"
       lpeversion="1"
       weight="33.333333"
       steps="2"
       helper_size="0"
       apply_no_weight="true"
       apply_with_weight="true"
       only_selected="false" />
    <inkscape:path-effect
       effect="bspline"
       id="path-effect3169"
       is_visible="true"
       lpeversion="1"
       weight="33.333333"
       steps="2"
       helper_size="0"
       apply_no_weight="true"
       apply_with_weight="true"
       only_selected="false" />
    <inkscape:path-effect
       effect="bspline"
       id="path-effect3165"
       is_visible="true"
       lpeversion="1"
       weight="33.333333"
       steps="2"
       helper_size="0"
       apply_no_weight="true"
       apply_with_weight="true"
       only_selected="false" />
  </defs>
  <g
     inkscape:label="Layer 1"
     inkscape:groupmode="layer"
     id="layer1">
    <path
       style="fill:none;stroke:#000000;stroke-width:1;stroke-dasharray:none"
       d="m 37.871638,61.241325 c 1.507162,-1.947446 3.014616,-3.895268 3.901478,-5.135347 0.886862,-1.240079 1.153373,-1.773101 1.508878,-2.306523 0.355504,-0.533421 0.79969,-1.066443 1.378076,-1.867189 0.578387,-0.800747 1.291164,-1.869567 1.871303,-2.672572 0.580138,-0.803005 1.027447,-1.339844 2.104115,-3.088532 1.076668,-1.748687 2.782963,-4.709805 3.993927,-6.726973 1.210964,-2.017168 1.926517,-3.090152 2.329172,-3.759936 0.402654,-0.669784 0.492532,-0.937337 0.893899,-1.650536 0.401367,-0.7132 1.114145,-1.871203 1.693819,-2.851454 0.579674,-0.980252 1.026288,-1.782907 1.3831,-2.317938 0.356812,-0.535032 0.623323,-0.801543 0.800733,-1.067261 0.177409,-0.265718 0.266246,-0.532228 0.4884,-0.932484 0.222154,-0.400255 0.577502,-0.933276 0.844746,-1.244776 0.267243,-0.311499 0.444917,-0.400336 0.577379,-0.576952 0.132461,-0.176616 0.221298,-0.443127 0.532399,-0.887997 0.3111,-0.444869 0.844123,-1.06673 1.110728,-1.464761 0.266604,-0.398032 0.266604,-0.574665 0.310237,-0.751571 0.04363,-0.176906 0.13143,-0.352498 0.30679,-0.612056 0.17536,-0.259558 0.438054,-0.602413 0.569551,-0.86155 0.131496,-0.259137 0.131496,-0.436811 0.199415,-0.587768 0.06792,-0.150957 0.203603,-0.272413 0.271369,-0.374258 0.06777,-0.101845 0.06777,-0.186869 0.111951,-0.407442 0.04418,-0.220573 0.133021,-0.575921 0.399542,-1.10952 0.266521,-0.533599 0.710707,-1.244297 0.933022,-1.687515 0.222316,-0.443219 0.222316,-0.620893 0.266509,-0.782348 0.04419,-0.161456 0.133031,-0.304776 0.222319,-0.448822"
       id="path3163"
       inkscape:path-effect="#path-effect3165"
       inkscape:original-d="m 37.871638,61.241325 c 1.510098,-1.945174 3.017551,-3.892997 4.522358,-5.843463 0.269158,-0.530375 0.535668,-1.063397 0.799534,-1.599067 0.446831,-0.530376 0.891016,-1.063398 1.332556,-1.599065 0.715422,-1.066176 1.428202,-2.134994 2.138333,-3.206462 0.449956,-0.534193 0.897263,-1.071033 1.341927,-1.610518 1.708941,-2.958471 3.415236,-5.919589 5.118886,-8.883354 0.718198,-1.07034 1.433753,-2.143323 2.146662,-3.218955 0.09252,-0.264906 0.182401,-0.532458 0.269634,-0.802656 0.715426,-1.155359 1.428203,-2.313363 2.138336,-3.474014 0.44926,-0.80001 0.895874,-1.602665 1.339842,-2.407967 0.269156,-0.263866 0.535668,-0.530376 0.799534,-0.799534 0.09148,-0.263866 0.180319,-0.530376 0.26651,-0.799534 0.357994,-0.530376 0.713343,-1.063397 1.066046,-1.599065 0.180319,-0.08619 0.357992,-0.175028 0.533021,-0.266511 0.09148,-0.263866 0.180319,-0.530377 0.26651,-0.799534 0.535667,-0.619213 1.068692,-1.241072 1.599067,-1.865577 0.0026,-0.173987 0.0026,-0.35062 0,-0.529899 0.09044,-0.172946 0.178237,-0.348538 0.263388,-0.526775 0.26534,-0.34021 0.528034,-0.683065 0.788082,-1.028567 0.0026,-0.175028 0.0026,-0.352702 0,-0.533022 0.13833,-0.118811 0.274013,-0.240268 0.407054,-0.36437 0.0026,-0.08237 0.0026,-0.167394 0,-0.25506 0.09148,-0.352702 0.180319,-0.70805 0.266509,-1.066044 0.446831,-0.70805 0.891017,-1.418747 1.332556,-2.132089 0.0026,-0.175028 0.0026,-0.352702 0,-0.533021 0.09148,-0.140674 0.180321,-0.283993 0.266512,-0.429958" />
    <path
       style="fill:none;stroke:#000000;stroke-width:1;stroke-dasharray:none"
       d="m 66.004169,15.206746 c 4.108059,-0.259727 8.213646,-0.519297 12.522851,-0.649005 4.309205,-0.129707 8.821849,-0.129707 13.89649,-0.129707 5.07464,0 10.71128,0 14.96002,0 4.24873,0 7.10956,0 11.43535,0.04982 4.32579,0.04982 10.11651,0.149416 14.90276,0.19919 4.78625,0.04977 8.56807,0.04977 11.51617,0.04977 2.94811,0 5.0625,0 6.34148,-0.04462 1.27898,-0.04462 1.72317,-0.133459 3.41623,-0.177674 1.69307,-0.04421 4.63441,-0.04421 6.37134,-0.08881 1.73693,-0.0446 2.26995,-0.133434 3.35255,-0.177674 1.08261,-0.04424 2.71429,-0.04424 3.86428,-0.09211 1.14999,-0.04787 1.81869,-0.143303 2.93561,-0.19086 1.11692,-0.04756 2.68163,-0.04756 3.59462,-0.09224 0.91299,-0.04468 1.17534,-0.133522 1.43612,-0.221827"
       id="path3167"
       inkscape:path-effect="#path-effect3169"
       inkscape:original-d="m 66.004169,15.206746 c 4.108236,-0.256925 8.213823,-0.516496 12.316767,-0.778712 4.515289,0.0026 9.027933,0.0026 13.53793,0 5.639284,0.0026 11.275924,0.0026 16.909914,0 2.86348,0.0026 5.72431,0.0026 8.58249,0 5.79336,0.102241 11.58408,0.201835 17.37215,0.298784 3.78447,0.0026 7.56629,0.0026 11.34546,0 2.11704,0.0026 4.23143,0.0026 6.34317,0 0.44683,-0.08619 0.89102,-0.175028 1.33256,-0.266511 2.94398,0.0026 5.88532,0.0026 8.82401,0 0.53567,-0.08619 1.06869,-0.175028 1.59907,-0.266511 1.63433,0.0026 3.26601,0.0026 4.89505,0 0.67136,-0.09279 1.34006,-0.188215 2.00613,-0.286291 1.56735,0.0026 3.13206,0.0026 4.69413,0 0.26499,-0.08619 0.52734,-0.175029 0.78704,-0.266511" />
    <path
       style="fill:none;stroke:#000000;stroke-width:1;stroke-dasharray:none"
       d="m 156.12863,58.332607 c 1.33374,-3.208613 2.66803,-6.418546 4.10869,-9.618 1.44066,-3.199454 2.98767,-6.388216 4.03412,-8.848833 1.04644,-2.460617 1.59231,-4.193632 2.22893,-5.695239 0.63663,-1.501607 1.36398,-2.771003 1.94972,-3.894133 0.58574,-1.123129 1.02992,-2.100338 1.47427,-2.855919 0.44435,-0.755582 0.88854,-1.288606 1.15489,-1.687711 0.26636,-0.399106 0.35519,-0.665612 0.66623,-1.154798 0.31103,-0.489187 0.84405,-1.199883 1.55464,-2.443284 0.71059,-1.2434 1.59896,-3.020141 2.26526,-4.308358 0.66629,-1.288217 1.11047,-2.087748 1.33282,-2.619896 0.22234,-0.532148 0.22234,-0.79866 0.3109,-1.1479 0.0886,-0.34924 0.26624,-0.77989 0.44446,-1.21187"
       id="path3171"
       inkscape:path-effect="#path-effect3173"
       inkscape:original-d="m 156.12863,58.332607 c 1.33694,-3.207284 2.67123,-6.417217 4.00287,-9.629793 1.54966,-3.186118 3.09667,-6.374881 4.64104,-9.566291 0.54851,-1.730369 1.09437,-3.463385 1.63759,-5.199046 0.73,-1.266754 1.45735,-2.536151 2.18206,-3.808193 0.44683,-0.974561 0.89101,-1.951771 1.33255,-2.931623 0.44683,-0.530376 0.89102,-1.063398 1.33256,-1.599066 0.0915,-0.263865 0.18032,-0.530376 0.26651,-0.799533 0.53567,-0.708051 1.06869,-1.418746 1.59906,-2.132089 0.89102,-1.774094 1.77939,-3.550835 2.66511,-5.330221 0.44684,-0.796887 0.89102,-1.59642 1.33256,-2.398599 0.003,-0.263865 0.003,-0.530377 0,-0.799533 0.18032,-0.428006 0.35799,-0.858657 0.53302,-1.291954" />
    <path
       style="fill:none;stroke:#000000;stroke-width:1;stroke-dasharray:none"
       d="m 152.69626,149.02549 c 0.70009,-1.53715 1.40072,-3.07548 1.97322,-4.15593 0.57251,-1.08045 1.01669,-1.7023 1.77544,-2.7732 0.75876,-1.07089 1.83209,-2.59084 2.72422,-3.75075 0.89212,-1.15992 1.60282,-1.95945 2.31438,-2.98195 0.71157,-1.02249 1.42435,-2.26864 2.04733,-3.24728 0.62299,-0.97863 1.15601,-1.68933 1.82305,-2.84563 0.66704,-1.1563 1.46831,-2.75884 2.00369,-3.73983 0.53538,-0.981 0.80466,-1.33982 1.29631,-2.14382 0.49164,-0.804 1.20581,-2.05362 1.87466,-3.39083 0.66885,-1.33722 1.29245,-2.76243 1.65027,-3.47566 0.35782,-0.71323 0.44663,-0.71323 0.53395,-0.93431 0.0873,-0.22107 0.17615,-0.66525 0.26652,-0.88836 0.0904,-0.22311 0.17919,-0.22311 0.39969,-0.71097 0.22049,-0.48786 0.57584,-1.46507 0.88688,-2.13188 0.31105,-0.66681 0.57755,-1.02215 0.78722,-1.41859 0.20967,-0.39644 0.3627,-0.83507 0.51627,-1.27524"
       id="path3179"
       inkscape:path-effect="#path-effect3181"
       inkscape:original-d="m 152.69626,149.02549 c 0.70328,-1.5357 1.40391,-3.07403 2.1019,-4.61502 0.44683,-0.61921 0.89101,-1.24107 1.33255,-1.86557 1.07598,-1.5173 2.14931,-3.03725 3.22,-4.55984 0.71334,-0.79689 1.42404,-1.59642 2.13209,-2.3986 0.71542,-1.2435 1.4282,-2.48965 2.13833,-3.73844 0.53567,-0.70805 1.06869,-1.41875 1.59907,-2.13209 0.80391,-1.59989 1.60518,-3.20243 2.4038,-4.80761 0.27193,-0.35618 0.54122,-0.71499 0.80786,-1.07646 0.71682,-1.24697 1.43098,-2.49659 2.1425,-3.74885 0.62624,-1.42256 1.24984,-2.84777 1.87079,-4.27563 0.0915,0.003 0.18031,0.003 0.26651,0 0.0915,-0.44154 0.18032,-0.88572 0.26651,-1.33255 0.0915,0.003 0.18032,0.003 0.26651,0 0.35799,-0.97456 0.71334,-1.95177 1.06604,-2.93163 0.26916,-0.3527 0.53567,-0.70804 0.79954,-1.06604 0.15568,-0.43599 0.30871,-0.87462 0.4591,-1.3159" />
    <path
       style="fill:none;stroke:#000000;stroke-width:1;stroke-dasharray:none"
       d="m 177.47138,14.617507 c 0,0.718894 0,1.435143 -0.0446,2.015055 -0.0446,0.579912 -0.13346,1.024096 -0.17768,2.158461 -0.0442,1.134365 -0.0442,2.9583 -0.0442,6.79946 0,3.841161 0,9.699546 -0.0933,13.292726 -0.0933,3.59318 -0.27968,4.921571 -0.3727,6.295629 -0.093,1.374059 -0.093,2.793369 -0.19277,4.227398 -0.0998,1.43403 -0.29894,2.883185 -0.39838,4.001831 -0.0994,1.118647 -0.0994,1.90638 -0.14938,2.700176 -0.0499,0.793797 -0.14953,1.594029 -0.19919,2.650018 -0.0496,1.055989 -0.0496,2.367375 -0.0967,3.29678 -0.047,0.929405 -0.14073,1.477358 -0.18739,3.591485 -0.0467,2.114127 -0.0467,5.793923 -0.0922,9.149736 -0.0455,3.355813 -0.13642,6.38772 -0.13703,8.081626 -6.1e-4,1.693906 0.0882,2.049251 0.13225,3.15948 0.044,1.110229 0.044,2.975806 0.089,4.042118 0.045,1.066312 0.13378,1.332816 0.17767,2.447006 0.0439,1.114189 0.0439,3.076585 0.0886,4.28008 0.0447,1.203496 0.13356,1.647677 0.17768,2.717857 0.0441,1.070181 0.0441,2.766761 0.0887,4.103761 0.0445,1.337 0.13338,2.31421 0.17767,3.55677 0.0443,1.24257 0.0443,2.75072 0.089,3.54869 0.0447,0.79797 0.13146,0.88578 0.21558,0.97092"
       id="path3183"
       inkscape:path-effect="#path-effect3185"
       inkscape:original-d="m 177.47138,14.617507 c 0.003,0.718894 0.003,1.435143 0,2.148745 -0.0862,0.446831 -0.17503,0.891016 -0.26651,1.332555 0.003,1.826581 0.003,3.650516 0,5.471806 0.003,5.861031 0.003,11.719416 0,17.575153 -0.18371,1.331037 -0.37006,2.659428 -0.55905,3.985176 0.003,1.421955 0.003,2.841265 0,4.257929 -0.19655,1.4518 -0.39574,2.900955 -0.59757,4.347461 0.003,0.790382 0.003,1.578115 0,2.363205 -0.0969,0.802873 -0.19654,1.6031 -0.29878,2.400681 0.003,1.314032 0.003,2.625418 0,3.934161 -0.091,0.55059 -0.18475,1.098534 -0.28109,1.643833 0.003,3.682441 0.003,7.362237 0,11.039387 -0.0883,3.034557 -0.17919,6.066465 -0.27276,9.09573 0.0915,0.357994 0.18032,0.713343 0.26651,1.066045 0.003,1.868223 0.003,3.7338 0,5.596732 0.0915,0.269158 0.18032,0.535667 0.26651,0.799533 0.003,1.965042 0.003,3.927438 0,5.887189 0.0915,0.44683 0.18033,0.891013 0.26652,1.332552 0.003,1.69923 0.003,3.39581 0,5.08974 0.0915,0.97985 0.18031,1.95706 0.26651,2.93162 0.003,1.51079 0.003,3.01894 0,4.52444 0.0894,0.0904 0.17615,0.17824 0.26026,0.26339" />
    <path
       style="fill:none;stroke:#000000;stroke-width:1;stroke-dasharray:none"
       d="m 67.86246,15.611718 c -0.1684,0.739706 -0.336358,1.47747 -0.420115,2.779492 -0.08376,1.302022 -0.08376,3.1676 -0.08376,5.614088 0,2.446488 0,5.473886 0.138694,7.873697 0.138694,2.399811 0.415616,4.171695 0.553844,6.079091 0.138227,1.907396 0.138227,3.950646 0.316058,6.615883 0.17783,2.665237 0.533178,5.952206 0.710696,8.261844 0.177517,2.309637 0.177517,3.642192 0.222324,4.486376 0.04481,0.844184 0.133646,1.199533 0.177675,2.846949 0.04403,1.647415 0.04403,4.587365 0.04403,6.901292 0,2.313926 0,4.00183 -0.04468,4.978508 -0.04468,0.976677 -0.133521,1.24319 -0.177675,3.198134 -0.04415,1.954944 -0.04415,5.597261 -0.08884,7.551146 -0.04468,1.953884 -0.13352,2.220396 -0.222125,4.086468 -0.0886,1.866071 -0.177443,5.330715 -0.221828,7.840743 -0.04439,2.510027 -0.04439,4.065369 -0.08904,5.015454 -0.04465,0.950087 -0.133492,1.295717 -0.22025,1.467607 -0.08676,0.1719 -0.174552,0.1719 -0.249185,0.57254 -0.07463,0.40063 -0.13328,1.19947 -0.200578,1.59768 -0.0673,0.3982 -0.146072,0.3982 -0.230875,0.62931 -0.0848,0.2311 -0.1726,0.69125 -0.260002,1.14933"
       id="path3187"
       inkscape:path-effect="#path-effect3189"
       inkscape:original-d="m 67.86246,15.611718 c -0.165312,0.740409 -0.333269,1.478173 -0.503873,2.213291 0.0026,1.868223 0.0026,3.733801 0,5.596732 0.0026,3.030045 0.0026,6.057443 0,9.082197 0.279567,1.774528 0.55649,3.546411 0.830765,5.315646 0.0026,2.045898 0.0026,4.089148 0,6.129755 0.357995,3.289615 0.713341,6.576584 1.066044,9.86091 0.0026,1.335201 0.0026,2.667756 0,3.997666 0.09148,0.357992 0.180321,0.71334 0.266512,1.066043 0.0026,2.942595 0.0026,5.882545 0,8.819851 0.0026,1.690547 0.0026,3.378451 0,5.06371 -0.08619,0.269155 -0.17503,0.535667 -0.266512,0.799533 0.0026,3.644964 0.0026,7.287281 0,10.926953 -0.08619,0.269156 -0.175027,0.535668 -0.26651,0.799531 -0.08619,3.467291 -0.17503,6.931935 -0.266512,10.393932 0.0026,1.557988 0.0026,3.11333 0,4.666032 -0.08619,0.34827 -0.175027,0.6939 -0.266512,1.03689 -0.08515,0.003 -0.172945,0.003 -0.263387,0 -0.056,0.80148 -0.114647,1.60032 -0.175938,2.39652 -0.07613,0.003 -0.154903,0.003 -0.23632,0 -0.08515,0.46279 -0.172948,0.92294 -0.263388,1.38044" />
    <path
       style="fill:none;stroke:#000000;stroke-width:1;stroke-dasharray:none"
       d="m 68.643253,105.39263 c -2.694781,5.16951 -5.389041,10.33802 -7.135891,13.54397 -1.746851,3.20594 -2.546386,4.44966 -3.079457,5.33823 -0.533072,0.88856 -0.799582,1.42158 -0.932573,1.77773 -0.132991,0.35614 -0.132991,0.53382 -0.221828,0.71017 -0.08884,0.17634 -0.266515,0.35402 -0.400003,0.62147 -0.133487,0.26744 -0.222325,0.62279 -0.488999,1.15558 -0.266675,0.5328 -0.711202,1.24418 -0.97793,1.73357 -0.266728,0.48939 -0.355566,0.7559 -0.75524,1.3772 -0.399674,0.6213 -1.110366,1.59851 -1.780855,2.58276 -0.670489,0.98426 -1.300678,1.97535 -1.79347,2.78191 -0.492792,0.80655 -0.84814,1.42841 -1.38109,2.22775 -0.532951,0.79935 -1.243649,1.77656 -1.732314,2.4874 -0.488666,0.71085 -0.755175,1.15503 -1.017734,1.72553 -0.26256,0.5705 -0.521088,1.26662 -0.692482,1.61395 -0.171394,0.34733 -0.258845,0.34733 -0.303892,0.4354 -0.04505,0.0881 -0.04505,0.26159 -0.08626,0.43225 -0.04122,0.17066 -0.123113,0.34 -0.384576,0.82174 -0.261462,0.48173 -0.702524,1.27606 -1.053554,2.02225 -0.351031,0.7462 -0.61199,1.44371 -0.872408,2.13977"
       id="path3195"
       inkscape:path-effect="#path-effect3197"
       inkscape:original-d="m 68.643253,105.39263 c -2.691614,5.17116 -5.385874,10.33967 -8.08278,15.50553 -0.796888,1.24636 -1.596422,2.49008 -2.398599,3.73115 -0.263866,0.53567 -0.530378,1.06869 -0.799533,1.59907 0.0026,0.18032 0.0026,0.358 0,0.53302 -0.175028,0.18032 -0.352703,0.358 -0.533022,0.53302 -0.08619,0.358 -0.17503,0.71335 -0.266512,1.06605 -0.441886,0.71404 -0.886418,1.42542 -1.333595,2.13417 -0.08619,0.26916 -0.17503,0.53567 -0.266513,0.79953 -0.708048,0.97986 -1.418746,1.95706 -2.132089,2.93163 -0.627541,0.99373 -1.257728,1.98482 -1.890561,2.97326 -0.352703,0.6245 -0.708052,1.24636 -1.066044,1.86558 -0.708051,0.97985 -1.418748,1.95706 -2.132089,2.93162 -0.263866,0.44683 -0.530376,0.89101 -0.799534,1.33255 -0.255883,0.69877 -0.514413,1.39489 -0.775589,2.08837 -0.0848,0.003 -0.172251,0.003 -0.262345,0 0.0026,0.17615 0.0026,0.34966 0,0.52053 -0.07925,0.17199 -0.161149,0.34133 -0.245692,0.50803 -0.438414,0.79698 -0.879477,1.59131 -1.323184,2.38299 -0.258312,0.70015 -0.519273,1.39766 -0.782878,2.09253" />
    <path
       style="fill:none;stroke:#000000;stroke-width:1;stroke-dasharray:none"
       d="m 67.875993,106.91362 c 0.457343,-0.0892 0.912631,-0.17807 5.198968,-0.22229 4.286337,-0.0442 12.403123,-0.0442 17.827733,-0.0442 5.424611,0 8.157045,0 10.656446,-0.14225 2.49939,-0.14225 4.76612,-0.42646 6.30777,-0.56842 1.54165,-0.14196 2.35784,-0.14196 3.14487,-0.18964 0.78703,-0.0477 1.54526,-0.14277 2.54266,-0.24163 0.9974,-0.0989 2.23383,-0.20157 4.58779,-0.25283 2.35395,-0.0513 5.82519,-0.0513 10.20091,-0.0967 4.37572,-0.0455 9.65597,-0.1364 13.23429,-0.18184 3.57831,-0.0454 5.45465,-0.0454 6.67799,-0.0933 1.22334,-0.0479 1.79418,-0.14333 3.50125,-0.19086 1.70707,-0.0475 4.54985,-0.0475 7.016,6e-5 2.46615,0.0476 4.55556,0.14269 6.91194,0.19017 2.35638,0.0475 4.97985,0.0475 6.77281,0.0805 1.79296,0.0331 2.75525,0.099 3.17275,0.78042 0.41751,0.68141 0.29328,1.97614 0.16927,3.26851"
       id="path3199"
       inkscape:path-effect="#path-effect3201"
       inkscape:original-d="m 67.875993,106.91362 c 0.457936,-0.0862 0.913225,-0.17503 1.365869,-0.26651 8.119436,0.003 16.236222,0.003 24.350366,0 2.735077,0.003 5.467511,0.003 8.197302,0 2.26937,-0.28157 4.5361,-0.56578 6.80019,-0.85263 0.81884,0.003 1.63503,0.003 2.44857,0 0.76089,-0.0924 1.51912,-0.18752 2.27471,-0.28525 1.23908,-0.10007 2.47551,-0.20279 3.7093,-0.30815 3.47388,0.003 6.94512,0.003 10.41371,0 5.2829,-0.0883 10.56315,-0.1792 15.84075,-0.27276 1.87898,0.003 3.75532,0.003 5.62901,0 0.57349,-0.0928 1.14433,-0.18822 1.71254,-0.28629 2.84543,0.003 5.68821,0.003 8.52835,0 2.09205,0.0977 4.18146,0.19281 6.26822,0.28525 2.62611,0.003 5.24958,0.003 7.8704,0 0.96493,0.0686 1.92722,0.13451 2.88686,0.1978 -0.12159,1.29737 -0.24582,2.5921 -0.3727,3.88419" />
    <path
       style="fill:none;stroke:#000000;stroke-width:3;stroke-dasharray:none"
       d="m 37.477075,61.366254 c 3.106122,-0.626433 6.210211,-1.252457 12.798318,-1.645273 6.588107,-0.392815 16.659657,-0.552791 23.420246,-0.71732 6.760589,-0.164528 10.210311,-0.333527 17.212888,-0.417965 7.002577,-0.08444 17.557873,-0.08444 24.302523,-0.283085 6.74464,-0.198647 9.67904,-0.595638 12.142,-0.935028 2.46296,-0.33939 4.45451,-0.621171 6.02783,-0.806415 1.57331,-0.185244 2.72819,-0.274082 3.52783,-0.318407 0.79964,-0.04433 1.24383,-0.04433 1.59865,-0.08901 0.35481,-0.04468 0.62132,-0.133519 1.82016,-0.133198 1.19885,3.21e-4 3.32886,0.08916 5.76679,0.133519 2.43793,0.04436 5.1839,0.04436 6.55556,0.08958 1.37166,0.04522 1.37166,0.133019 1.69752,0.19633 0.32587,0.06331 0.9748,0.104606 1.29786,0.205262 0.32306,0.100656 0.32306,0.258202 0.38983,0.462334 0.0668,0.204132 0.19863,0.454334 0.32883,0.701373"
       id="path3277"
       inkscape:path-effect="#path-effect3279"
       inkscape:original-d="m 37.477075,61.366254 c 3.106738,-0.62338 6.210827,-1.249402 9.312272,-1.878071 10.074196,-0.157332 20.145746,-0.317307 30.214649,-0.479928 3.452368,-0.166354 6.90209,-0.335351 10.349167,-0.506997 10.557941,0.0026 21.113237,0.0026 31.665887,0 2.93704,-0.394343 5.87144,-0.791334 8.80319,-1.190971 1.99419,-0.279133 3.98574,-0.560915 5.97464,-0.845339 1.15753,-0.08619 2.31241,-0.17503 3.46464,-0.266512 0.44683,0.0026 0.89102,0.0026 1.33256,0 0.26915,-0.08619 0.53566,-0.175027 0.79953,-0.26651 2.13265,0.09148 4.26266,0.180319 6.39002,0.26651 2.74861,0.0026 5.49458,0.0026 8.2379,0 0.003,0.09044 0.003,0.178239 0,0.263387 0.65157,0.04394 1.3005,0.08524 1.94678,0.123886 0.003,0.160195 0.003,0.317741 0,0.472641 0.13451,0.252849 0.26638,0.50305 0.3956,0.750605" />
    <path
       style="fill:none;stroke:#000000;stroke-width:3;stroke-dasharray:none"
       d="m 155.79653,57.361298 c 0.0996,6.668238 0.19923,13.33379 0.24901,18.099738 0.0498,4.765948 0.0498,7.63233 0.13978,10.092804 0.09,2.460474 0.26976,4.51483 0.30968,7.390092 0.0399,2.875261 -0.0597,6.571717 -0.10944,9.507708 -0.0498,2.936 -0.0498,5.11147 -0.0944,6.46547 -0.0446,1.35399 -0.13343,1.88701 -0.17767,3.48632 -0.0442,1.59932 -0.0442,4.26443 -0.0889,5.77427 -0.0447,1.50984 -0.13349,1.86519 -0.17768,2.75395 -0.0442,0.88876 -0.0442,2.31015 -0.13407,3.51473 -0.0899,1.20457 -0.26931,2.19289 -0.4478,3.44226 -0.17848,1.24938 -0.35616,2.75961 -0.48928,3.55799 -0.13313,0.79839 -0.22196,0.88721 -0.26637,1.11063 -0.0444,0.22341 -0.0444,0.57876 -0.13352,1.02242 -0.0891,0.44365 -0.26677,0.97667 -0.40097,1.5586 -0.13419,0.58193 -0.22511,1.2121 -0.31509,1.61545 -0.09,0.40336 -0.17882,0.58103 -0.22298,0.98159 -0.0442,0.40056 -0.0442,1.02242 -0.0888,1.46608 -0.0447,0.44365 -0.13352,0.71016 -0.17768,1.46078 -0.0442,0.75061 -0.0442,1.98426 -0.0886,3.4559 -0.0445,1.47164 -0.13332,3.18141 -0.22203,4.88867"
       id="path3285"
       inkscape:path-effect="#path-effect3287"
       inkscape:original-d="m 155.79653,57.361298 c 0.10224,6.668199 0.20184,13.333751 0.29879,19.996658 0.003,2.869028 0.003,5.73541 0,8.599146 0.1824,2.057003 0.36216,4.111358 0.53927,6.163069 -0.0969,3.699097 -0.19655,7.395551 -0.29879,11.089359 0.003,2.17811 0.003,4.35358 0,6.5264 -0.0862,0.53567 -0.17503,1.06869 -0.26651,1.59906 0.003,2.66776 0.003,5.33287 0,7.99534 -0.0862,0.35799 -0.17503,0.71334 -0.26651,1.06604 0.003,1.42404 0.003,2.84543 0,4.26418 -0.17677,0.99095 -0.35617,1.97927 -0.53823,2.96493 -0.17503,1.51288 -0.3527,3.02311 -0.53302,4.53069 -0.0862,0.0915 -0.17503,0.18032 -0.26651,0.26651 0.003,0.35799 0.003,0.71334 0,1.06604 -0.17503,0.53567 -0.3527,1.06869 -0.53302,1.59907 -0.0883,0.63284 -0.1792,1.26302 -0.27276,1.89056 -0.0862,0.18032 -0.17503,0.358 -0.26651,0.53303 0.003,0.6245 0.003,1.24636 0,1.86557 -0.0862,0.26916 -0.17503,0.53567 -0.26651,0.79954 0.003,1.2363 0.003,2.46995 0,3.70096 -0.0862,1.71241 -0.17503,3.42218 -0.26651,5.1293" />
    <path
       style="fill:none;stroke:#000000;stroke-width:3;stroke-dasharray:none"
       d="m 43.550612,151.35434 c 2.658989,-0.39454 5.315771,-0.78876 7.895496,-1.04458 2.579725,-0.25583 5.082083,-0.37347 6.739167,-0.43223 1.657085,-0.0588 2.468763,-0.0588 4.913224,-0.22768 2.444461,-0.16893 6.521942,-0.50658 9.743733,-0.72498 3.221791,-0.2184 5.587769,-0.31765 6.999706,-0.41427 1.411937,-0.0966 1.87036,-0.19032 3.08882,-0.28387 1.21846,-0.0935 3.19647,-0.18724 5.118193,-0.32298 1.921724,-0.13574 3.7873,-0.31341 5.604779,-0.40214 1.817479,-0.0887 3.586584,-0.0887 6.176912,-0.0887 2.590328,0 6.001878,0 9.664318,0 3.66245,0 7.57579,0 11.24181,0.14396 3.66601,0.14396 7.0845,0.43163 9.19463,0.57535 2.11012,0.14372 2.91209,0.14372 4.47928,0.19132 1.56719,0.0476 3.8995,0.14268 5.15366,0.14548 1.25416,0.003 1.43182,-0.086 1.83238,-0.13019 0.40056,-0.0442 1.02242,-0.0442 1.77723,-0.13319 0.75481,-0.089 1.64318,-0.26671 2.35418,-0.35535 0.71101,-0.0886 1.24403,-0.0886 1.8655,-0.1777 0.62147,-0.0891 1.33216,-0.26674 1.99358,-0.39993 0.66142,-0.13318 1.27322,-0.22202 1.75465,-0.35485 0.48143,-0.13284 0.83365,-0.30947 1.30726,-0.39753 0.47361,-0.0881 1.06702,-0.0881 1.65777,-0.0881"
       id="path3289"
       inkscape:path-effect="#path-effect3291"
       inkscape:original-d="m 43.550612,151.35434 c 2.65943,-0.39157 5.316212,-0.78579 7.970348,-1.18265 2.505003,-0.11499 5.007361,-0.23263 7.507076,-0.35292 0.814324,0.003 1.626002,0.003 2.435034,0 4.080126,-0.335 8.157607,-0.67265 12.232441,-1.01295 2.368627,-0.0966 4.734605,-0.19585 7.09794,-0.29774 0.461058,-0.091 0.919472,-0.18474 1.375238,-0.28108 1.980658,-0.0911 3.95867,-0.18475 5.934036,-0.28109 1.868223,-0.17503 3.7338,-0.3527 5.596731,-0.53302 1.771753,0.003 3.540858,0.003 5.307319,0 3.414195,0.003 6.825745,0.003 10.234645,0 3.91599,0.003 7.82933,0.003 11.74002,0 3.42114,0.29032 6.83963,0.578 10.25547,0.86303 0.80461,0.003 1.60658,0.003 2.40589,0 2.33497,0.0977 4.66728,0.19282 6.99696,0.28525 0.18032,-0.0862 0.35799,-0.17502 0.53302,-0.26651 0.6245,0.003 1.24636,0.003 1.86558,0 0.89101,-0.17502 1.77938,-0.3527 2.66511,-0.53302 0.53567,0.003 1.06869,0.003 1.59906,0 0.71335,-0.17503 1.42404,-0.3527 2.13209,-0.53302 0.61444,-0.0862 1.22624,-0.17503 1.83539,-0.26651 0.35487,-0.17399 0.70709,-0.35062 1.05667,-0.5299 0.59605,0.003 1.18946,0.003 1.78021,0" />
    <path
       style="fill:none;stroke:#000000;stroke-width:3;stroke-dasharray:none"
       d="m 38.781524,62.436462 c 0.293727,5.464174 0.587305,10.925568 0.867605,14.278271 0.280299,3.352702 0.54681,4.596421 0.994212,7.11037 0.447402,2.513948 1.075855,6.298197 1.389831,9.278569 0.313977,2.980373 0.313977,5.157227 0.372967,6.750182 0.05899,1.592956 0.17663,2.601746 0.23528,4.359436 0.05865,1.75769 0.05865,4.26456 0.05865,6.33054 0,2.06598 0,3.69108 -0.04462,4.72698 -0.04462,1.03589 -0.133457,1.48319 -0.177673,2.56655 -0.04422,1.08335 -0.04422,2.80214 2.57e-4,4.77205 0.04447,1.9699 0.133311,4.19083 0.177674,5.74543 0.04436,1.55459 0.04436,2.44296 0.08917,3.06505 0.04481,0.6221 0.133645,0.97745 0.177674,1.55465 0.04403,0.57721 0.04403,1.37674 0.08859,2.22081 0.04456,0.84408 0.1334,1.73245 0.222886,2.26561 0.08948,0.53317 0.178324,0.71085 0.266444,1.59902 0.08812,0.88818 0.176957,2.48724 0.266509,3.3758 0.08955,0.88857 0.178392,1.06625 0.222018,1.6868 0.04363,0.62055 0.04363,1.68452 0.08884,2.3056 0.04521,0.62108 0.134051,0.79876 0.177674,1.22376 0.04362,0.42501 0.04362,1.09788 0.08554,1.47491 0.04191,0.37703 0.123138,0.45825 0.207085,0.76554 0.08395,0.30729 0.172786,0.84032 0.261122,1.37033"
       id="path3293"
       inkscape:path-effect="#path-effect3295"
       inkscape:original-d="m 38.781524,62.436462 c 0.296222,5.46404 0.589801,10.925434 0.880734,16.384182 0.269158,1.246365 0.535668,2.490084 0.799534,3.731154 0.631097,3.786897 1.259552,7.571145 1.885357,11.352747 0.0026,2.1795 0.0026,4.356354 0,6.530565 0.120285,1.01143 0.237924,2.02022 0.35292,3.02636 0.0026,2.50951 0.0026,5.01638 0,7.5206 0.0026,1.62774 0.0026,3.25284 0,4.87528 -0.08619,0.44996 -0.17503,0.89726 -0.266512,1.34193 0.0026,1.72143 0.0026,3.44022 0,5.15636 0.09148,2.22357 0.180319,4.4445 0.266512,6.66278 0.0026,0.89101 0.0026,1.77938 0,2.66511 0.09148,0.35799 0.180319,0.71334 0.26651,1.06604 0.0026,0.80218 0.0026,1.60171 0,2.3986 0.09148,0.89102 0.180321,1.77939 0.266512,2.66511 0.09148,0.18032 0.180319,0.358 0.266509,0.53303 0.09148,1.60171 0.180322,3.20077 0.266512,4.7972 0.09148,0.18031 0.180319,0.35799 0.266513,0.53302 0.0026,1.0666 0.0026,2.13057 0,3.19188 0.09148,0.18032 0.180318,0.358 0.266509,0.53302 0.0026,0.67552 0.0026,1.34839 0,2.01862 0.08385,0.0838 0.165052,0.16505 0.243607,0.24361 0.09148,0.53566 0.180322,1.06869 0.266512,1.59906" />
  </g>
</svg>
