<?xml version="1.0" encoding="UTF-8" standalone="no"?>
<!-- Created with Inkscape (http://www.inkscape.org/) -->

<svg
   width="100"
   height="100"
   viewBox="0 0 26.458333 26.458333"
   version="1.1"
   id="svg4361"
   xmlns:inkscape="http://www.inkscape.org/namespaces/inkscape"
   xmlns:sodipodi="http://sodipodi.sourceforge.net/DTD/sodipodi-0.dtd"
   xmlns="http://www.w3.org/2000/svg"
   xmlns:svg="http://www.w3.org/2000/svg">
  <sodipodi:namedview
     id="namedview4363"
     pagecolor="#ffffff"
     bordercolor="#000000"
     borderopacity="0.25"
     inkscape:showpageshadow="2"
     inkscape:pageopacity="0.0"
     inkscape:pagecheckerboard="0"
     inkscape:deskcolor="#d1d1d1"
     inkscape:document-units="mm"
     showgrid="false" />
  <defs
     id="defs4358">
    <inkscape:path-effect
       effect="bspline"
       id="path-effect5313"
       is_visible="true"
       lpeversion="1"
       weight="33.333333"
       steps="2"
       helper_size="0"
       apply_no_weight="true"
       apply_with_weight="true"
       only_selected="false" />
  </defs>
  <g
     inkscape:label="Layer 1"
     inkscape:groupmode="layer"
     id="layer1">
    <ellipse
       style="fill:none;stroke:#000000;stroke-width:1;stroke-dasharray:none"
       id="path4897"
       cx="13.47513"
       cy="13.593649"
       rx="12.34718"
       ry="12.14787" />
    <path
       style="fill:none;stroke:#000000;stroke-width:0.5;stroke-dasharray:none"
       d="M 14.539128,10.001563 C 13.787218,9.8455845 13.032246,9.6889707 12.536462,9.6103461 12.040678,9.5317214 11.8045,9.5317214 11.351728,9.8284362 10.898957,10.125151 10.232075,10.718725 9.8402923,11.256974 c -0.3917832,0.53825 -0.5078478,1.019133 -0.5469742,1.480003 -0.039126,0.46087 -0.00201,0.900775 0.2562257,1.635397 0.2582384,0.734621 0.7363612,1.763622 1.1541842,2.411867 0.417824,0.648245 0.77387,0.916691 1.679398,1.230661 0.905528,0.31397 2.360386,0.674924 3.299443,0.797353 0.939057,0.122429 1.363626,0.0076 1.630126,-0.128361 0.266501,-0.135951 0.377106,-0.294037 0.441504,-0.515629 0.0644,-0.221591 0.08237,-0.508623 0.100099,-0.788788 0.01773,-0.280165 0.03521,-0.553456 0.06015,-0.868411 0.02494,-0.314956 0.05739,-0.671492 0.07373,-1.0375 0.01633,-0.366007 0.01633,-0.741745 0.01633,-1.055156 0,-0.313412 0,-0.564497 -0.137995,-0.714665 -0.137995,-0.150168 -0.416992,-0.197281 -0.894528,-0.221092 -0.477537,-0.02381 -1.153252,-0.02381 -1.546969,0.0074 -0.393718,0.03116 -0.503649,0.09398 -0.604687,0.14086 -0.101038,0.04688 -0.193911,0.07786 -0.325947,0.116711 -0.132035,0.03885 -0.303432,0.08554 -0.476623,0.132708"
       id="path5311"
       inkscape:path-effect="#path-effect5313"
       inkscape:original-d="M 14.539128,10.001563 C 13.786801,9.8475947 13.031829,9.6909809 12.27421,9.5317214 c -0.233532,0.00265 -0.46971,0.00265 -0.708534,0 -0.664236,0.5962196 -1.331117,1.1897936 -2.0006441,1.7807216 -0.113419,0.48353 -0.2294837,0.964413 -0.3481943,1.44265 0.03976,0.442551 0.076873,0.882456 0.1113411,1.319715 0.4807688,1.031646 0.9588913,2.060647 1.4343683,3.087002 0.358692,0.271091 0.714738,0.539537 1.068139,0.805337 1.457503,0.363599 2.912361,0.724553 4.364572,1.082861 0.427215,-0.112192 0.851784,-0.227029 1.273706,-0.344513 0.113251,-0.15544 0.223856,-0.313526 0.331815,-0.474258 0.02062,-0.284388 0.03859,-0.57142 0.05392,-0.8611 0.02013,-0.270646 0.03761,-0.543937 0.05245,-0.819875 0.0351,-0.353891 0.06755,-0.710428 0.09736,-1.069611 0.0026,-0.373092 0.0026,-0.74883 0,-1.127214 0.0026,-0.248439 0.0026,-0.499524 0,-0.753255 -0.276351,-0.04447 -0.555348,-0.09158 -0.836991,-0.141339 -0.673069,0.0026 -1.348784,0.0026 -2.027145,0 -0.107284,0.06546 -0.217214,0.12828 -0.329791,0.188452 -0.09023,0.03363 -0.183106,0.0646 -0.278628,0.09294 -0.168752,0.04933 -0.34015,0.09601 -0.514194,0.140051" />
  </g>
</svg>
