<?xml version="1.0" encoding="UTF-8" standalone="no"?>
<!-- Created with Inkscape (http://www.inkscape.org/) -->

<svg
   width="100"
   height="100"
   viewBox="0 0 26.458333 26.458333"
   version="1.1"
   id="svg5"
   xmlns="http://www.w3.org/2000/svg"
   xmlns:svg="http://www.w3.org/2000/svg">
  <defs
     id="defs2" />
  <g
     id="layer1">
    <ellipse
       style="fill:none;stroke:#000000;stroke-width:1;stroke-dasharray:none"
       id="path236"
       cx="13.504877"
       cy="12.917543"
       rx="11.019471"
       ry="11.400957" />
    <path
       style="fill:none;stroke:#000000;stroke-width:0.499999;stroke-dasharray:none"
       d="m 8.0645221,6.9699337 c 0.4468605,-0.062721 0.8914904,-0.125129 1.2134826,-0.1771794 0.3219922,-0.05205 0.5215695,-0.093638 0.6859239,-0.1309659 0.1643544,-0.037328 0.2936434,-0.070342 0.4328574,-0.062246 0.139214,0.0081 0.287034,0.055807 0.380059,0.041066 0.09303,-0.014741 0.134932,-0.091847 0.154868,-0.053099 0.01994,0.038748 0.01743,0.1916803 0.06977,0.3312975 0.05233,0.1396173 0.157073,0.2656584 0.25527,0.4144748 0.0982,0.1488163 0.190531,0.3201185 0.348523,0.7104241 0.157993,0.3903056 0.382171,0.9995818 0.48068,1.5014645 0.09851,0.5018832 0.07268,0.8970972 0.01773,1.2558962 -0.05495,0.3588 -0.138712,0.681807 -0.369165,0.810828 -0.230452,0.129022 -0.611077,0.06539 -1.004596,-0.0062 -0.393519,-0.07155 -0.7999687,-0.1511 -1.0407292,-0.212869 -0.2407605,-0.06177 -0.3158952,-0.107031 -0.3941403,-0.154166"
       id="path971" />
    <path
       style="fill:none;stroke:#000000;stroke-width:0.499999;stroke-dasharray:none"
       d="m 13.29321,5.8175167 c 0.0088,0.1422581 0.01743,0.2817176 0.06754,0.5779107 0.05012,0.2961931 0.141279,0.7488634 0.231826,1.198479"
       id="path975" />
    <path
       style="fill:none;stroke:#000000;stroke-width:0.499999;stroke-dasharray:none"
       d="m 16.049809,9.7559264 c -0.491207,0.1756091 -0.98392,0.3517566 -1.271318,0.5269476 -0.287398,0.175191 -0.367431,0.347718 -0.341198,0.500817 0.02623,0.153099 0.155576,0.285263 0.467457,0.292275 0.311881,0.007 0.806991,-0.108006 1.092181,-0.33562 0.285189,-0.227614 0.362826,-0.570219 0.397347,-0.720071 0.03452,-0.1498528 0.02589,-0.107044 -0.0019,-0.0124 -0.02777,0.09464 -0.07458,0.241502 -0.05543,0.377408 0.01914,0.135906 0.101682,0.259445 0.199702,0.396408 0.09802,0.136964 0.211334,0.287446 0.306026,0.381628 0.09469,0.09418 0.169828,0.133374 0.281915,0.01007 0.112088,-0.123301 0.264807,-0.408396 0.372754,-0.587427 0.107947,-0.179031 0.17078,-0.251236 0.247137,-0.293064 0.07636,-0.04183 0.163796,-0.0528 0.253666,0.09576 0.08987,0.148557 0.183482,0.453195 0.225921,0.627025 0.04244,0.17383 0.03504,0.217863 0.03323,0.225878 -0.0018,0.008 0.0019,-0.02009 0.02159,-0.11749 0.01966,-0.0974 0.0554,-0.263802 0.158212,-0.498068 0.102817,-0.234266 0.272789,-0.535283 0.409754,-0.551883 0.136966,-0.0166 0.239204,0.248901 0.291567,0.49458 0.05236,0.245679 0.05604,0.472041 0.09084,0.513501 0.0348,0.04146 0.101307,-0.100451 0.172129,-0.250332 0.07082,-0.149881 0.145957,-0.307711 0.241254,-0.431402 0.0953,-0.123691 0.209836,-0.211819 0.342667,-0.169292 0.13283,0.04253 0.281874,0.212604 0.399959,0.360771 0.118085,0.148166 0.205575,0.274208 0.255153,0.416669 0.04958,0.14246 0.06311,0.301515 0.08315,0.42523 0.02004,0.123714 0.04592,0.211788 0.07088,0.296713"
       id="path979" />
    <path
       style="fill:none;stroke:#000000;stroke-width:0.499999;stroke-dasharray:none"
       d="m 9.6718992,12.328816 c -0.3969373,0.222191 -0.7947609,0.444879 -1.0300804,0.699952 -0.2353194,0.255072 -0.3067796,0.540168 -0.2337198,0.902971 0.07306,0.362804 0.2886122,0.802003 0.5417713,1.302405 0.2531592,0.500403 0.5438459,1.062021 0.7975265,1.567336 0.2536802,0.505315 0.4704572,0.954311 0.6077782,1.468629 0.13732,0.514317 0.196427,1.094254 0.199812,1.5515 0.0034,0.457246 -0.04832,0.792502 -0.07525,1.022742 -0.02693,0.230241 -0.02936,0.355055 -0.05721,0.452472 -0.02785,0.09742 -0.08083,0.169568 -0.127739,0.263685 -0.04691,0.09412 -0.08754,0.209136 -0.127628,0.322633"
       id="path983" />
    <path
       style="fill:none;stroke:#000000;stroke-width:0.499999;stroke-dasharray:none"
       d="m 13.740343,16.08751 c -0.258669,0.255687 -0.517353,0.511389 -0.690602,0.701274 -0.17325,0.189886 -0.260685,0.313423 -0.202824,0.526356 0.05786,0.212932 0.258609,0.512724 0.512065,0.605153 0.253455,0.09243 0.560169,-0.01891 0.806906,-0.185541 0.246737,-0.166627 0.435186,-0.389314 0.427285,-0.616207 -0.0079,-0.226893 -0.214826,-0.460551 -0.389496,-0.633308 -0.17467,-0.172757 -0.317538,-0.284101 -0.589363,-0.253725 -0.271826,0.03038 -0.670928,0.205298 -1.071277,0.380768"
       id="path987" />
    <path
       style="fill:none;stroke:#000000;stroke-width:0.499999;stroke-dasharray:none"
       d="m 13.832677,14.292589 c -0.102532,0.05578 -0.205995,0.112062 -0.306415,0.402716 -0.10042,0.290654 -0.196481,0.81308 -0.258539,1.400583 -0.06206,0.587502 -0.09039,1.239644 -0.03702,1.853518 0.05337,0.613874 0.187613,1.188911 0.321131,1.760853"
       id="path991" />
    <path
       style="fill:none;stroke:#000000;stroke-width:0.499999;stroke-dasharray:none"
       d="m 17.040083,16.953659 c -0.148383,0.03623 -0.29865,0.07292 -0.48188,0.138344 -0.18323,0.06543 -0.398782,0.159678 -0.422668,0.286043 -0.02389,0.126366 0.142411,0.281747 0.324017,0.266942 0.181606,-0.01481 0.381131,-0.19713 0.568042,-0.592003 0.186912,-0.394872 0.361835,-1.004148 0.453773,-1.369006 0.09194,-0.364858 0.100565,-0.486 0.0822,-0.525796 -0.01837,-0.0398 -0.06395,0.0042 -0.09987,0.109344 -0.03593,0.105104 -0.0618,0.269058 -0.08391,0.464949 -0.0221,0.195891 -0.04058,0.423477 -0.0968,0.63203 -0.05621,0.208552 -0.149824,0.399396 -0.145634,0.53522 0.0042,0.135824 0.102755,0.215379 0.171457,0.279904 0.0687,0.06452 0.108106,0.113459 0.166869,0.213915 0.05876,0.100455 0.137572,0.252164 0.20774,0.354595 0.07017,0.10243 0.130554,0.156265 0.223077,0.195089 0.09252,0.03882 0.216914,0.06449 0.339047,0.0025 0.122133,-0.06197 0.245298,-0.21123 0.362798,-0.382228 0.1175,-0.170997 0.229589,-0.364292 0.347213,-0.684986 0.117623,-0.320695 0.240788,-0.769745 0.323304,-1.057361 0.08252,-0.287616 0.124424,-0.413604 0.123809,-0.43219 -6.15e-4,-0.01859 -0.04375,0.07072 -0.07312,0.279407 -0.02937,0.208691 -0.0454,0.535374 -0.04513,0.755226 2.72e-4,0.219851 0.0163,0.332421 0.02037,0.551246 0.0041,0.218825 -0.0033,0.544283 0.07577,0.715041 0.07909,0.170759 0.241716,0.189076 0.428422,0.264502 0.186705,0.07543 0.397306,0.206367 0.604811,0.335382"
       id="path995" />
    <path
       style="fill:none;stroke:#000000;stroke-width:0.499999;stroke-dasharray:none"
       d="m 18.640112,16.593909 c -0.06454,0.110945 -0.128599,0.221065 -0.15995,0.273107 -0.03135,0.05204 -0.03012,0.0447 -0.0095,0.02156 0.02057,-0.02313 0.06003,-0.05982 0.09113,-0.110405 0.0311,-0.05058 0.05448,-0.11666 0.135774,-0.128528 0.0813,-0.01187 0.216819,0.031 0.349171,0.07286"
       id="path999" />
  </g>
</svg>
